<svg width="78" height="14" viewBox="0 0 78 14" fill="none" xmlns="http://www.w3.org/2000/svg">
<path d="M3.16089 13.5124C2.82276 13.6862 2.43989 13.3824 2.50796 12.9944L3.23397 8.8561L0.151933 5.91904C-0.1361 5.64456 0.0129997 5.14269 0.398865 5.08788L4.68503 4.47899L6.59614 0.693267C6.76829 0.352244 7.23464 0.352244 7.40679 0.693267L9.3179 4.47899L13.6041 5.08788C13.9899 5.14269 14.139 5.64456 13.851 5.91904L10.769 8.8561L11.495 12.9944C11.563 13.3824 11.1802 13.6862 10.842 13.5124L7.00146 11.5384L3.16089 13.5124Z" fill="#ffffff"/>
<path d="M19.1609 13.5124C18.8228 13.6862 18.4399 13.3824 18.508 12.9944L19.234 8.8561L16.1519 5.91904C15.8639 5.64456 16.013 5.14269 16.3989 5.08788L20.685 4.47899L22.5961 0.693267C22.7683 0.352244 23.2346 0.352244 23.4068 0.693267L25.3179 4.47899L29.6041 5.08788C29.9899 5.14269 30.139 5.64456 29.851 5.91904L26.769 8.8561L27.495 12.9944C27.563 13.3824 27.1802 13.6862 26.842 13.5124L23.0015 11.5384L19.1609 13.5124Z" fill="#ffffff"/>
<path d="M35.1609 13.5124C34.8228 13.6862 34.4399 13.3824 34.508 12.9944L35.234 8.8561L32.1519 5.91904C31.8639 5.64456 32.013 5.14269 32.3989 5.08788L36.685 4.47899L38.5961 0.693267C38.7683 0.352244 39.2346 0.352244 39.4068 0.693267L41.3179 4.47899L45.6041 5.08788C45.9899 5.14269 46.139 5.64456 45.851 5.91904L42.769 8.8561L43.495 12.9944C43.563 13.3824 43.1802 13.6862 42.842 13.5124L39.0015 11.5384L35.1609 13.5124Z" fill="#ffffff"/>
<path d="M51.1609 13.5124C50.8228 13.6862 50.4399 13.3824 50.508 12.9944L51.234 8.8561L48.1519 5.91904C47.8639 5.64456 48.013 5.14269 48.3989 5.08788L52.685 4.47899L54.5961 0.693267C54.7683 0.352244 55.2346 0.352244 55.4068 0.693267L57.3179 4.47899L61.6041 5.08788C61.9899 5.14269 62.139 5.64456 61.851 5.91904L58.769 8.8561L59.495 12.9944C59.563 13.3824 59.1802 13.6862 58.842 13.5124L55.0015 11.5384L51.1609 13.5124Z" fill="#ffffff"/>
<path d="M67.1609 13.5124C66.8228 13.6862 66.4399 13.3824 66.508 12.9944L67.234 8.8561L64.1519 5.91904C63.8639 5.64456 64.013 5.14269 64.3989 5.08788L68.685 4.47899L70.5961 0.693267C70.7683 0.352244 71.2346 0.352244 71.4068 0.693267L73.3179 4.47899L77.6041 5.08788C77.9899 5.14269 78.139 5.64456 77.851 5.91904L74.769 8.8561L75.495 12.9944C75.563 13.3824 75.1802 13.6862 74.842 13.5124L71.0015 11.5384L67.1609 13.5124Z" fill="#ffffff"/>
</svg>
