<svg width="38" height="38" viewBox="0 0 38 38" fill="none" xmlns="http://www.w3.org/2000/svg">
<rect width="38" height="38" rx="6" fill="#F6391A"/>
<mask id="mask0_342_1031" style="mask-type:luminance" maskUnits="userSpaceOnUse" x="10" y="9" width="19" height="19">
<path d="M28.3985 9.50391H10.4531V27.4493H28.3985V9.50391Z" fill="white"/>
</mask>
<g mask="url(#mask0_342_1031)">
<path d="M19.4258 11.1211C21.823 11.1211 22.1044 11.1317 23.0519 11.1745C23.9282 11.2137 24.4019 11.3597 24.7189 11.4844C25.1392 11.6482 25.4385 11.8406 25.7519 12.154C26.0654 12.4675 26.2614 12.7667 26.4216 13.187C26.5427 13.504 26.6923 13.9778 26.7316 14.854C26.7742 15.8015 26.7849 16.0829 26.7849 18.4801C26.7849 20.8774 26.7742 21.1588 26.7316 22.1063C26.6923 22.9825 26.5462 23.4563 26.4216 23.7733C26.2577 24.1936 26.0654 24.4928 25.7519 24.8063C25.4385 25.1198 25.1392 25.3156 24.7189 25.476C24.4019 25.5971 23.9282 25.7467 23.0519 25.7858C22.1044 25.8286 21.823 25.8393 19.4258 25.8393C17.0286 25.8393 16.7472 25.8286 15.7997 25.7858C14.9234 25.7467 14.4497 25.6006 14.1327 25.476C13.7124 25.3121 13.4131 25.1198 13.0997 24.8063C12.7862 24.4928 12.5903 24.1936 12.43 23.7733C12.3089 23.4563 12.1593 22.9825 12.1201 22.1063C12.0774 21.1588 12.0667 20.8774 12.0667 18.4801C12.0667 16.0829 12.0774 15.8015 12.1201 14.854C12.1593 13.9778 12.3054 13.504 12.43 13.187C12.5939 12.7667 12.7862 12.4675 13.0997 12.154C13.4131 11.8406 13.7124 11.6447 14.1327 11.4844C14.4497 11.3633 14.9234 11.2137 15.7997 11.1745C16.7472 11.1282 17.0322 11.1211 19.4258 11.1211ZM19.4258 9.50391C16.9894 9.50391 16.6831 9.51459 15.7249 9.55734C14.7703 9.60008 14.1184 9.75325 13.5485 9.97409C12.9572 10.2021 12.4585 10.512 11.9598 11.0106C11.4612 11.5093 11.1548 12.0116 10.9233 12.5993C10.7025 13.1692 10.5493 13.8211 10.5066 14.7792C10.4638 15.7339 10.4531 16.0402 10.4531 18.4766C10.4531 20.913 10.4638 21.2193 10.5066 22.1774C10.5493 23.1321 10.7025 23.784 10.9233 24.3575C11.1513 24.9488 11.4612 25.4475 11.9598 25.9462C12.4585 26.4448 12.9608 26.7511 13.5485 26.9827C14.1184 27.2035 14.7703 27.3567 15.7285 27.3994C16.6866 27.4421 16.9894 27.4529 19.4294 27.4529C21.8693 27.4529 22.1721 27.4421 23.1303 27.3994C24.085 27.3567 24.7368 27.2035 25.3102 26.9827C25.9015 26.7547 26.4002 26.4448 26.8989 25.9462C27.3976 25.4475 27.704 24.9452 27.9354 24.3575C28.1563 23.7875 28.3094 23.1357 28.3522 22.1774C28.3949 21.2193 28.4056 20.9166 28.4056 18.4766C28.4056 16.0366 28.3949 15.7339 28.3522 14.7757C28.3094 13.8211 28.1563 13.1692 27.9354 12.5957C27.7075 12.0044 27.3976 11.5058 26.8989 11.0071C26.4002 10.5084 25.898 10.2021 25.3102 9.97053C24.7403 9.74968 24.0885 9.59652 23.1303 9.55377C22.1686 9.51459 21.8622 9.50391 19.4258 9.50391Z" fill="white"/>
<path d="M19.4255 11.1211C21.8227 11.1211 22.1041 11.1318 23.0516 11.1745C23.9279 11.2137 24.4016 11.3597 24.7186 11.4844C25.1389 11.6483 25.4382 11.8406 25.7516 12.1541C26.0651 12.4675 26.2611 12.7667 26.4213 13.1871C26.5424 13.5041 26.692 13.9778 26.7312 14.8541C26.7739 15.8016 26.7846 16.083 26.7846 18.4802C26.7846 20.8774 26.7739 21.1588 26.7312 22.1063C26.692 22.9826 26.5459 23.4563 26.4213 23.7734C26.2574 24.1936 26.0651 24.4928 25.7516 24.8063C25.4382 25.1198 25.1389 25.3157 24.7186 25.476C24.4016 25.5971 23.9279 25.7467 23.0516 25.7858C22.1041 25.8287 21.8227 25.8393 19.4255 25.8393C17.0283 25.8393 16.7469 25.8287 15.7994 25.7858C14.9231 25.7467 14.4494 25.6007 14.1324 25.476C13.712 25.3121 13.4128 25.1198 13.0994 24.8063C12.7859 24.4928 12.59 24.1936 12.4297 23.7734C12.3086 23.4563 12.159 22.9826 12.1198 22.1063C12.0771 21.1588 12.0664 20.8774 12.0664 18.4802C12.0664 16.083 12.0771 15.8016 12.1198 14.8541C12.159 13.9778 12.3051 13.5041 12.4297 13.1871C12.5936 12.7667 12.7859 12.4675 13.0994 12.1541C13.4128 11.8406 13.712 11.6447 14.1324 11.4844C14.4494 11.3633 14.9231 11.2137 15.7994 11.1745C16.7469 11.1282 17.0318 11.1211 19.4255 11.1211Z" fill="white"/>
<path d="M19.4266 13.873C16.8833 13.873 14.8174 15.9354 14.8174 18.4823C14.8174 21.0291 16.8798 23.0916 19.4266 23.0916C21.9734 23.0916 24.0359 21.0291 24.0359 18.4823C24.0359 15.9354 21.9734 13.873 19.4266 13.873ZM19.4266 21.4708C17.7738 21.4708 16.4345 20.1315 16.4345 18.4787C16.4345 16.8259 17.7738 15.4866 19.4266 15.4866C21.0794 15.4866 22.4187 16.8259 22.4187 18.4787C22.4187 20.1315 21.0794 21.4708 19.4266 21.4708Z" fill="#F6391A"/>
<path d="M24.2164 14.7608C24.8105 14.7608 25.2921 14.2792 25.2921 13.6851C25.2921 13.091 24.8105 12.6094 24.2164 12.6094C23.6223 12.6094 23.1406 13.091 23.1406 13.6851C23.1406 14.2792 23.6223 14.7608 24.2164 14.7608Z" fill="#F6391A"/>
</g>
</svg>
