<svg width="231" height="790" viewBox="0 0 231 790" fill="none" xmlns="http://www.w3.org/2000/svg">
<path d="M-379.133 389.461C-376.412 389.943 -373.685 390.387 -370.958 390.792C-347.802 394.225 -324.821 394.714 -305.986 389.938C-300.092 388.444 -294.618 386.439 -289.674 383.853C-293.005 372.487 -296.753 360.385 -300.844 347.44C-303.621 338.654 -306.555 329.483 -309.623 319.894C-314.152 305.74 -318.971 290.676 -324.004 274.601C-323.35 273.748 -322.69 272.897 -322.027 272.051C-316.8 288.771 -311.798 304.405 -307.105 319.072C-304.036 328.665 -301.099 337.844 -298.319 346.642C-294.297 359.367 -290.599 371.301 -287.298 382.541C-277.637 376.912 -270.233 368.852 -266.022 357.782C-259.363 340.275 -260.563 314.935 -274.024 279.171C-279.859 263.668 -284.588 249.062 -288.281 235.426C-287.551 234.751 -286.817 234.079 -286.08 233.41C-282.364 247.325 -277.546 262.293 -271.545 278.238C-257.99 314.251 -256.552 340.334 -263.547 358.723C-268.097 370.684 -276.161 379.262 -286.534 385.155C-277.887 414.884 -272.119 439.71 -270.635 461.453C-268.547 492.072 -274.95 516.641 -293.702 540.244C-307.915 558.133 -329.191 575.427 -359.115 594.416C-359.491 593.608 -359.864 592.799 -360.233 591.988C-330.6 573.157 -309.691 556.111 -295.776 538.596C-277.489 515.579 -271.228 491.686 -273.278 461.634C-274.735 440.28 -280.384 415.847 -288.919 386.442C-293.945 389.019 -299.458 391.016 -305.335 392.506C-324.652 397.404 -348.028 396.869 -371.347 393.411C-374.15 392.996 -376.954 392.538 -379.752 392.041C-379.549 391.18 -379.343 390.32 -379.133 389.461Z" fill="#F6391A"/>
<path d="M124.075 699.745C105.058 681.68 82.0756 657.81 54.0103 627.235C44.2442 616.595 35.3753 606.441 27.3458 596.733C-41.5977 641.11 -113.159 691.916 -162.91 762.093C-163.808 761.837 -164.705 761.576 -165.6 761.312C-115.596 690.433 -43.5179 639.198 25.6468 594.67C-15.3946 544.631 -33.9518 506.538 -38.0883 475.042C-43.0948 436.921 -26.946 408.744 -4.72946 381.17C-0.968781 376.503 2.96078 371.857 6.99158 367.184C-12.5093 358.503 -32.6469 344.602 -53.2512 325.732C-81.6287 299.743 -110.954 264.269 -140.789 219.848C-153.901 200.326 -166.543 183.672 -178.565 169.728C-177.666 169.418 -176.764 169.112 -175.861 168.811C-163.96 182.69 -151.49 199.165 -138.59 218.371C-108.831 262.68 -79.6377 297.975 -51.4624 323.779C-30.7296 342.767 -10.5817 356.585 8.80365 365.089C11.0875 362.455 13.4003 359.81 15.7299 357.146C33.1768 337.194 51.5668 316.164 65.8403 290.476C79.3381 266.185 89.1113 237.766 90.6966 202.306C91.5565 202.86 92.4134 203.419 93.2674 203.982C91.451 239.134 81.6522 267.473 68.1555 291.763C53.7375 317.711 35.0505 339.082 17.537 359.111L17.5126 359.139C15.4445 361.504 13.3927 363.851 11.3664 366.184C17.4552 368.716 23.4674 370.72 29.3976 372.191C54.9271 378.522 78.9954 374.991 101.247 361.106C123.539 347.195 144.092 322.836 162.404 287.367C164.615 283.083 167.07 279.108 169.745 275.43C170.305 276.166 170.862 276.904 171.416 277.645C168.999 281.033 166.774 284.676 164.757 288.582C146.319 324.296 125.487 349.102 102.649 363.353C79.7695 377.63 54.962 381.26 28.76 374.761C22.4294 373.191 16.0209 371.031 9.54092 368.29C5.32022 373.173 1.22324 378.004 -2.66699 382.832C-24.7325 410.218 -40.3261 437.663 -35.4622 474.697C-31.4102 505.55 -13.1389 543.252 27.8898 593.227C38.8454 586.19 49.7209 579.318 60.4167 572.56C71.8853 565.313 83.148 558.196 94.0807 551.147C141.399 520.636 182.49 491.426 207.773 458.349C217.742 445.307 225.235 431.686 229.683 417.168C229.976 419.131 230.251 421.1 230.507 423.075C225.851 436.028 218.827 448.249 209.877 459.958C184.277 493.449 142.804 522.882 95.5161 553.373C84.5576 560.439 73.2838 567.564 61.8148 574.813L61.8096 574.816L61.8016 574.821C51.1993 581.522 40.4303 588.328 29.5901 595.29C37.5297 604.88 46.3005 614.919 55.9615 625.444C84.1083 656.108 107.104 679.984 126.092 698.008C125.422 698.59 124.75 699.169 124.075 699.745Z" fill="#F6391A"/>
</svg>
