<svg width="490" height="790" viewBox="0 0 490 790" fill="none" xmlns="http://www.w3.org/2000/svg">
<path d="M28.8669 389.461C31.5884 389.943 34.3155 390.387 37.0415 390.792C60.1982 394.225 83.1794 394.714 102.014 389.938C107.908 388.444 113.382 386.439 118.326 383.853C114.995 372.487 111.247 360.385 107.156 347.44C104.379 338.654 101.445 329.483 98.3771 319.894C93.8484 305.74 89.029 290.676 83.9956 274.601C84.6504 273.748 85.3095 272.897 85.9729 272.051C91.2005 288.771 96.2025 304.405 100.895 319.072C103.964 328.665 106.901 337.844 109.681 346.642C113.703 359.367 117.401 371.301 120.702 382.541C130.363 376.912 137.767 368.852 141.978 357.782C148.637 340.275 147.437 314.935 133.976 279.171C128.141 263.668 123.412 249.062 119.719 235.426C120.449 234.751 121.183 234.079 121.92 233.41C125.636 247.325 130.454 262.293 136.455 278.238C150.01 314.251 151.448 340.334 144.453 358.723C139.903 370.684 131.839 379.262 121.466 385.155C130.113 414.884 135.881 439.71 137.365 461.453C139.453 492.072 133.05 516.641 114.298 540.244C100.085 558.133 78.8085 575.427 48.8847 594.416C48.5087 593.608 48.1359 592.799 47.7666 591.988C77.4004 573.157 98.3086 556.111 112.224 538.596C130.511 515.579 136.772 491.686 134.722 461.634C133.265 440.28 127.616 415.847 119.081 386.442C114.055 389.019 108.542 391.016 102.665 392.506C83.3475 397.404 59.9719 396.869 36.6531 393.411C33.8497 392.996 31.0457 392.538 28.248 392.041C28.4508 391.18 28.657 390.32 28.8669 389.461Z" fill="#F6391A"/>
<path d="M532.075 699.745C513.058 681.68 490.076 657.81 462.01 627.235C452.244 616.595 443.375 606.441 435.346 596.733C366.402 641.11 294.841 691.916 245.09 762.093C244.192 761.837 243.295 761.576 242.4 761.312C292.404 690.433 364.482 639.198 433.647 594.67C392.605 544.631 374.048 506.538 369.912 475.042C364.905 436.921 381.054 408.744 403.271 381.17C407.031 376.503 410.961 371.857 414.992 367.184C395.491 358.503 375.353 344.602 354.749 325.732C326.371 299.743 297.046 264.269 267.211 219.848C254.099 200.326 241.457 183.672 229.435 169.728C230.334 169.418 231.236 169.112 232.139 168.811C244.04 182.69 256.51 199.165 269.41 218.371C299.169 262.68 328.362 297.975 356.538 323.779C377.27 342.767 397.418 356.585 416.804 365.089C419.088 362.455 421.4 359.81 423.73 357.146C441.177 337.194 459.567 316.164 473.84 290.476C487.338 266.185 497.111 237.766 498.697 202.306C499.556 202.86 500.413 203.419 501.267 203.982C499.451 239.134 489.652 267.473 476.156 291.763C461.738 317.711 443.05 339.082 425.537 359.111L425.513 359.139C423.445 361.504 421.393 363.851 419.366 366.184C425.455 368.716 431.467 370.72 437.398 372.191C462.927 378.522 486.995 374.991 509.247 361.106C531.539 347.195 552.092 322.836 570.404 287.367C572.615 283.083 575.07 279.108 577.745 275.43C578.305 276.166 578.862 276.904 579.416 277.645C576.999 281.033 574.774 284.676 572.757 288.582C554.319 324.296 533.487 349.102 510.649 363.353C487.77 377.63 462.962 381.26 436.76 374.761C430.429 373.191 424.021 371.031 417.541 368.29C413.32 373.173 409.223 378.004 405.333 382.832C383.267 410.218 367.674 437.663 372.538 474.697C376.59 505.55 394.861 543.252 435.89 593.227C446.845 586.19 457.721 579.318 468.417 572.56C479.885 565.313 491.148 558.196 502.081 551.147C549.399 520.636 590.49 491.426 615.773 458.349C625.742 445.307 633.235 431.686 637.683 417.168C637.976 419.131 638.251 421.1 638.507 423.075C633.851 436.028 626.827 448.249 617.877 459.958C592.277 493.449 550.804 522.882 503.516 553.373C492.558 560.439 481.284 567.564 469.815 574.813L469.81 574.816L469.802 574.821C459.199 581.522 448.43 588.328 437.59 595.29C445.53 604.88 454.301 614.919 463.962 625.444C492.108 656.108 515.104 679.984 534.092 698.008C533.422 698.59 532.75 699.169 532.075 699.745Z" fill="#F6391A"/>
</svg>
