<svg width="389" height="881" viewBox="0 0 389 881" fill="none" xmlns="http://www.w3.org/2000/svg">
<path d="M-406.306 421.518C-408.925 397.151 -353.814 342.029 -325.931 317.513L-385.076 285.683C-397.683 294.436 -429.206 322.551 -454.441 364.989C-479.676 407.427 -470.569 449.303 -462.861 464.936C-424.635 474.892 -338.771 496.782 -301.123 504.698C-275.796 490.117 -237.859 453.494 -222.056 437.005C-208.782 423.691 -170.693 381.254 -124.528 318.024C-78.3634 254.793 -30.3796 219.906 -12.1583 210.366C2.29579 203.6 34.3601 196 46.9847 219.724C59.6093 243.449 39.3888 274.794 27.7005 287.501C9.56912 304.672 -29.559 342.718 -41.0202 357.529C-55.3466 376.042 -55.0354 374.663 -70.5629 396.892C-86.0905 419.122 -85.1081 446.889 -79.1417 475.057C-73.1753 503.224 -38.8616 540.688 7.17386 547.091C44.0022 552.212 86.476 520.648 103.109 504.226C106.083 501.756 120.991 486.66 156.835 446.036C192.679 405.413 218.832 399.378 227.428 401.439C234.073 401.972 249.055 406.465 255.821 420.17C264.278 437.301 256.026 462.622 235.293 493.463C218.707 518.135 150.948 580.262 119.142 608.241L199.377 628.523L290.321 529.078C301.556 514.095 324.317 476.729 325.488 447.128C326.952 410.126 312.397 381.471 292.86 363.651C273.322 345.831 247.823 333.553 204.013 338.164C168.966 341.853 125.767 381.879 108.548 401.431C102.927 408.137 83.7117 429.896 51.8186 463.293C9.3932 501.923 -14.1956 468.329 -19.4709 451.554C-24.7461 434.778 14.8974 390.808 39.5918 368.11C64.2861 345.412 86.4657 317.798 93.0947 307.695C116.283 271.755 122.421 230.453 121.746 210.754C120.822 183.769 104.803 154.301 76.823 140.751C47.7682 126.68 13.2586 135.758 -4.28864 138.564C-47.7636 146.512 -84.6938 181.671 -108.61 200.92C-132.526 220.169 -208.497 314.295 -216.283 326.311C-224.069 338.327 -275.147 396.026 -292.655 414.184C-310.164 432.342 -339.909 451.725 -353.77 456.933C-364.859 461.1 -379.839 458.42 -385.943 456.559C-392.811 453.801 -406.499 442.932 -406.306 421.518Z" fill="#F6391A"/>
</svg>
