<svg width="201" height="338" viewBox="0 0 201 338" fill="none" xmlns="http://www.w3.org/2000/svg">
<path d="M-297.589 196.643C-299.37 180.073 -261.893 142.588 -242.932 125.917L-283.152 104.271C-291.726 110.224 -313.162 129.343 -330.322 158.202C-347.483 187.061 -341.29 215.537 -336.048 226.168C-310.053 232.938 -251.664 247.824 -226.062 253.208C-208.839 243.292 -183.041 218.387 -172.295 207.174C-163.268 198.12 -137.366 169.263 -105.973 126.264C-74.5799 83.2659 -41.9497 59.5415 -29.5588 53.0541C-19.7296 48.4533 2.07491 43.2849 10.66 59.4181C19.245 75.5514 5.49459 96.8667 -2.45376 105.508C-14.7836 117.185 -41.3917 143.057 -49.1856 153.129C-58.9279 165.718 -58.7163 164.78 -69.2754 179.897C-79.8345 195.013 -79.1664 213.896 -75.1092 233.051C-71.0518 252.205 -47.7177 277.682 -16.4124 282.035C8.63181 285.518 37.515 264.054 48.8261 252.886C50.8483 251.207 60.9864 240.941 85.3611 213.316C109.736 185.691 127.52 181.587 133.366 182.989C137.885 183.351 148.073 186.406 152.674 195.726C158.425 207.376 152.814 224.595 138.715 245.567C127.436 262.345 81.3577 304.593 59.7287 323.619L114.291 337.411L176.135 269.786C183.775 259.598 199.253 234.188 200.049 214.058C201.045 188.896 191.147 169.41 177.861 157.292C164.575 145.174 147.235 136.824 117.443 139.96C93.6104 142.468 64.2336 169.688 52.5244 182.984C48.702 187.543 35.6352 202.34 13.9472 225.051C-14.9032 251.321 -30.9442 228.476 -34.5315 217.068C-38.1188 205.66 -11.1602 175.759 5.6326 160.324C22.4254 144.889 37.508 126.11 42.0159 119.241C57.7848 94.8002 61.9586 66.7138 61.4997 53.3178C60.871 34.9678 49.9781 14.9283 30.9507 5.71402C11.1928 -3.85408 -12.2746 2.31895 -24.2072 4.22685C-53.7713 9.63204 -78.8847 33.5411 -95.1482 46.6309C-111.412 59.7207 -163.074 123.728 -168.369 131.9C-173.663 140.071 -208.398 179.308 -220.304 191.656C-232.21 204.004 -252.438 217.185 -261.863 220.726C-269.404 223.56 -279.591 221.737 -283.742 220.472C-288.412 218.596 -297.72 211.205 -297.589 196.643Z" fill="#F6391A"/>
</svg>
