<svg width="24" height="24" viewBox="0 0 24 24" fill="none" xmlns="http://www.w3.org/2000/svg">
<g clip-path="url(#clip0_957_de)">
<path d="M12 24C18.6274 24 24 18.6274 24 12C24 5.37258 18.6274 0 12 0C5.37258 0 0 5.37258 0 12C0 18.6274 5.37258 24 12 24Z" fill="#F0F0F0"/>
<path d="M0.745728 16.1736C2.45153 20.7574 6.84385 24.0001 11.9998 24.0001C17.1557 24.0001 21.548 20.7574 23.2538 16.1736L11.9998 15.1306L0.745728 16.1736Z" fill="#FFDA44"/>
<path d="M11.9998 0C6.84385 0 2.45153 3.24271 0.745728 7.82647L11.9998 8.86955L23.2538 7.82643C21.548 3.24271 17.1557 0 11.9998 0Z" fill="#0F172A"/>
<path d="M0.745728 7.8266C0.263954 9.12081 0 10.5298 0 12.0006C0 13.4714 0.263954 14.8804 0.745728 16.1746H23.2539C23.7357 14.8804 23.9996 13.4714 23.9996 12.0006C23.9996 10.5298 23.7357 9.12081 23.2539 7.8266H0.745728Z" fill="#D80027"/>
</g>
<defs>
<clipPath id="clip0_957_de">
<rect width="24" height="24" fill="white"/>
</clipPath>
</defs>
</svg>
