<svg width="24" height="24" viewBox="0 0 24 24" fill="none" xmlns="http://www.w3.org/2000/svg">
<defs><clipPath id="cc"><circle cx="12" cy="12" r="12"/></clipPath></defs>
<g clip-path="url(#cc)">
<rect width="24" height="24" fill="#D80027"/>
<polygon points="6.00,2.60 6.80,4.90 9.23,4.95 7.29,6.42 8.00,8.75 6.00,7.36 4.00,8.75 4.71,6.42 2.77,4.95 5.20,4.90" fill="#FFDA44"/>
<polygon points="12.21,1.96 11.93,2.69 12.52,3.21 11.73,3.17 11.42,3.90 11.22,3.14 10.43,3.07 11.09,2.64 10.92,1.87 11.53,2.36" fill="#FFDA44"/>
<polygon points="14.63,4.82 14.02,5.32 14.28,6.07 13.62,5.64 12.98,6.11 13.19,5.35 12.54,4.90 13.33,4.85 13.56,4.10 13.85,4.84" fill="#FFDA44"/>
<polygon points="14.68,8.79 13.91,8.92 13.75,9.69 13.39,8.99 12.61,9.08 13.17,8.52 12.84,7.81 13.54,8.16 14.12,7.63 14.00,8.41" fill="#FFDA44"/>
<polygon points="12.34,11.71 11.61,11.43 11.09,12.02 11.13,11.23 10.40,10.92 11.16,10.72 11.23,9.93 11.66,10.59 12.43,10.42 11.94,11.03" fill="#FFDA44"/>
</g>
</svg>