<svg width="32" height="32" viewBox="0 0 32 32" fill="none" xmlns="http://www.w3.org/2000/svg">
<rect width="32" height="32" rx="8" fill="#E93619"/>
<path d="M19.5367 6.44501C19.9656 6.76124 20.2643 7.12227 20.5353 7.57825C20.5717 7.63873 20.6081 7.69921 20.6455 7.76151C21.1618 8.70108 21.3827 9.81094 21.3761 10.8751C21.376 10.9666 21.376 10.9666 21.3758 11.06C21.3755 11.2533 21.3746 11.4466 21.3737 11.6399C21.3733 11.7716 21.373 11.9033 21.3727 12.0351C21.372 12.3566 21.3708 12.6781 21.3694 12.9996C21.4259 12.9839 21.4824 12.9682 21.5407 12.9521C22.0743 12.8042 22.6081 12.6569 23.1421 12.5102C23.4165 12.4348 23.691 12.3591 23.9653 12.283C24.2301 12.2095 24.4951 12.1366 24.7602 12.064C24.8612 12.0362 24.9621 12.0083 25.063 11.9802C25.2046 11.9407 25.3463 11.902 25.4882 11.8633C25.5687 11.8411 25.6493 11.8189 25.7323 11.796C25.9567 11.7485 26.1453 11.7274 26.3736 11.7485C26.6449 12.027 26.7304 12.21 26.7255 12.5912C26.7249 12.6545 26.7242 12.7177 26.7236 12.7829C26.7224 12.8557 26.7224 12.8557 26.7212 12.9301C26.3647 13.0678 26.0114 13.1879 25.6426 13.2898C25.5937 13.3034 25.5448 13.317 25.4945 13.331C25.3351 13.3753 25.1756 13.4191 25.0161 13.463C24.9047 13.4939 24.7933 13.5247 24.6819 13.5556C24.3904 13.6364 24.0988 13.7169 23.8071 13.7973C23.5089 13.8796 23.2107 13.9621 22.9126 14.0447C22.3287 14.2063 21.7448 14.3676 21.1608 14.5287C21.1347 14.6493 21.1347 14.6493 21.108 14.7725C19.0891 24.0796 19.0891 24.0796 16.513 25.9091C15.7904 26.3374 14.9358 26.3711 14.1279 26.201C13.3414 25.9782 12.7347 25.409 12.327 24.7134C11.7483 23.6624 11.5319 22.5243 11.4303 21.34C11.4066 21.4074 11.383 21.4748 11.3586 21.5442C10.7193 23.3279 9.77276 25.1278 7.98983 25.9838C6.99316 26.4067 6.0041 26.5559 4.96641 26.2053C4.60779 26.0334 4.32915 25.8062 4.06286 25.5103C4.01698 25.4615 3.97111 25.4128 3.92385 25.3626C2.54934 23.3867 3.00878 20.2986 3.40338 18.0913C3.66349 16.6665 3.97702 15.2527 4.40793 13.8689C4.42853 13.8023 4.44914 13.7358 4.47036 13.6672C4.63235 13.2959 4.92995 13.0737 5.29574 12.9192C5.56903 12.8485 5.819 12.8339 6.10019 12.8345C6.15235 12.8346 6.2045 12.8347 6.25824 12.8348C6.73596 12.8454 7.10347 12.9408 7.46855 13.2602C7.66189 13.6952 7.60502 14.1056 7.49706 14.5506C7.47118 14.6649 7.44531 14.7793 7.41945 14.8936C7.4055 14.9536 7.39156 15.0136 7.3772 15.0755C6.98835 16.7573 6.69195 18.4534 6.42599 20.1585C6.41836 20.2072 6.41073 20.2559 6.40287 20.306C6.2679 21.1742 6.1999 22.0294 6.19142 22.9082C6.19043 22.9865 6.18945 23.0647 6.18843 23.1453C6.19138 23.6312 6.21619 24.0801 6.54328 24.4677C6.79081 24.5748 7.00061 24.5997 7.26004 24.5372C8.49545 23.8764 9.01887 21.5718 9.3943 20.3542C9.88242 18.7197 10.2476 17.0573 10.5609 15.3814C10.5698 15.3344 10.5786 15.2874 10.5877 15.239C10.6342 14.9885 10.677 14.7377 10.7158 14.4859C10.7242 14.4328 10.7327 14.3798 10.7414 14.3252C10.7574 14.2244 10.7726 14.1235 10.7867 14.0224C10.8487 13.6369 10.9868 13.3441 11.2913 13.0938C11.3371 13.067 11.383 13.0402 11.4303 13.0126C11.4762 12.9849 11.522 12.9572 11.5693 12.9287C12.0055 12.7149 12.5781 12.7217 13.0449 12.8255C13.3312 12.9374 13.5319 13.1112 13.7239 13.3471C13.8647 13.6797 13.8832 13.989 13.8814 14.3451C13.8817 14.4294 13.8817 14.4294 13.8819 14.5154C13.8822 14.6994 13.8813 14.8833 13.8803 15.0673C13.8801 15.1629 13.8801 15.1629 13.8799 15.2604C13.878 16.0993 13.8521 16.9325 13.7934 17.7693C13.7306 18.6699 13.7066 19.5683 13.7031 20.4712C13.7025 20.6137 13.7016 20.7563 13.7002 20.8989C13.6824 22.6271 13.6824 22.6271 14.3494 24.1897C14.5956 24.4263 14.8133 24.5224 15.1487 24.5763C15.7725 24.4761 16.1397 24.1359 16.5041 23.6337C17.0194 22.8562 17.3673 22.0043 17.6856 21.1315C17.7062 21.0752 17.7268 21.0189 17.748 20.9609C18.4917 18.896 18.9255 16.7453 19.3537 14.5982C19.2731 14.5821 19.1925 14.5661 19.1094 14.5496C17.711 14.2618 16.4964 13.7387 15.6483 12.5304C14.8648 11.2794 14.651 9.77767 14.9679 8.34307C15.1448 7.64538 15.4964 6.96497 16.087 6.53569C17.1335 5.92292 18.4764 5.76225 19.5367 6.44501ZM16.5345 8.00478C16.0825 8.59066 16.0979 9.3748 16.1566 10.0804C16.2508 10.7231 16.4676 11.2948 16.8516 11.818C16.8873 11.8671 16.9229 11.9162 16.9596 11.9668C17.4394 12.5682 18.1062 12.9568 18.8672 13.0691C19.1466 13.0834 19.4219 13.0799 19.7013 13.0691C20.0023 11.5434 20.0507 9.63958 19.2685 8.238C18.985 7.83958 18.6413 7.52292 18.1722 7.36974C17.5154 7.26667 16.9757 7.52776 16.5345 8.00478Z" fill="white"/>
<path d="M27.3972 10.0169C27.4786 10.0191 27.4786 10.0191 27.5616 10.0214C27.6772 10.0246 27.7927 10.028 27.9083 10.0315C28.0811 10.0368 28.2539 10.0416 28.4267 10.0462C28.9696 10.0614 29.5123 10.0807 30.0546 10.1092C30.1425 10.1136 30.2303 10.1181 30.3208 10.1227C30.5263 10.1478 30.6505 10.1767 30.8219 10.2889C30.9313 10.4421 30.9614 10.5694 31 10.7537C30.8861 11.4245 30.0986 11.9993 29.6273 12.4609C29.5143 12.572 29.4014 12.6832 29.2887 12.7945C29.1871 12.8949 29.0852 12.9949 28.9832 13.0949C28.8192 13.2643 28.6747 13.4406 28.5283 13.6251C28.3017 13.7837 28.1056 13.7975 27.8332 13.7641C27.6012 13.6146 27.5041 13.5414 27.4162 13.2776C27.4073 13.1242 27.4003 12.9707 27.3945 12.8171C27.3406 12.0561 27.0863 11.6616 26.5702 11.1072C26.4091 10.8628 26.4102 10.7155 26.4431 10.4279C26.7185 10.0057 26.9226 10.0017 27.3972 10.0169Z" fill="white"/>
</svg>
